<svg width="681" height="486" viewBox="0 0 681 486" fill="none" xmlns="http://www.w3.org/2000/svg">
<path fill-rule="evenodd" clip-rule="evenodd" d="M110.606 227.806C110.606 252.663 115.286 276.09 122.244 297.454C115.286 276.194 110.606 252.803 110.606 227.806Z" fill="#5D4D3D"/>
<path d="M181.599 415.803H0C0 280.912 4.52158 146.045 4.52158 11.1587C86.2405 7.0874 202.763 -20.2326 275.634 29.3789C366.696 90.5593 293.875 210.334 213.012 224.213C256.248 276.314 290.351 336.491 337.605 385.382C399.983 449.922 488.748 470.208 574.732 445.74C604.556 437.254 622.961 421.597 635.018 421.597C647.075 421.597 657.86 448.389 647.076 453.788C559.018 497.87 360.7 507.258 297.414 413.549C239.953 328.466 187.662 227.806 110.606 227.806C110.606 252.803 115.286 276.194 122.244 297.454C134.538 335.206 153.942 366.518 167.193 387.902C175.649 401.547 181.599 411.149 181.599 415.803ZM110.606 52.1703L109.983 185.957C147.022 185.957 191.347 190.918 222.646 167.415C255.503 142.575 259.346 89.234 228.414 61.4414C216.679 50.6201 110.606 26.2875 110.606 52.1703Z" fill="#5D4D3D"/>
<path d="M322.544 219.806C322.994 134.324 363.841 50.1239 445.893 16.5972C516.186 -12.7033 589.822 1.34961 652.617 40.3403L663.883 49.0962L674.319 49.1514L675.301 131.065L649.446 130.928C649.907 43.3353 546.6 6.65087 475.926 41.5643C375.9 90.9787 370.86 272.993 430.126 350.888C546.122 501.59 727.413 277.831 591.038 277.111L591.235 239.764L676.881 240.217C676.672 279.833 682.823 347.279 680.458 422.321C655.53 334.26 581.033 497.129 404.835 392.158C363.715 367.661 321.988 325.303 322.544 219.806Z" fill="#5D4D3D"/>
</svg>
