<svg width="1447" height="371" viewBox="0 0 1447 371" fill="none" xmlns="http://www.w3.org/2000/svg">
<path fill-rule="evenodd" clip-rule="evenodd" d="M658.079 12.5528C716.69 -12.2571 780.701 6.1641 801.802 13.21C812.352 16.7329 829.935 27.3026 836.969 34.3487C844.002 41.3948 848.412 45.585 849.105 52.8565C851.036 73.1023 850.287 107.252 850.287 107.252H850.044L850.287 121.344H828.68C828.68 48.1012 742.191 17.884 683.287 47.3887C637.098 70.5253 615.451 127.567 613.812 184.874C614.979 226.168 626.404 266.16 646.376 292.141C743.971 417.638 787.735 280.867 780.516 243.833V212.605H852.087C852.087 237.253 855.095 274.769 855.958 318.211C873.586 328.801 891.692 317.165 909.161 293.109L1019.5 4.41805C1019.62 4.09767 1019.73 3.80283 1019.84 3.53426H1043.4L1044.02 5.10262C1056.89 38.1206 1076.9 118.73 1103.02 195.434C1130.02 268.658 1164.51 333.948 1205.27 333.627C1204.11 219.096 1197.42 56.5396 1197.42 10.5802H1318.66C1318.66 62.9177 1241.19 177.283 1277.69 300.709C1292.75 344.274 1375.72 335.807 1405.59 317.394C1428.26 303.093 1424.28 284.762 1429.61 261.927H1446.72L1447 364.856H1065.19C1065.19 351.951 1070.45 345.636 1075.51 338.358C1084.28 325.689 1092.44 310.069 1071.44 252.135C1071.11 251.216 1070.77 250.286 1070.42 249.345C1069.98 248.158 1069.53 246.953 1069.07 245.731H963.569C939.105 304.839 948.894 322.694 958.083 338.358C962.648 346.121 967.061 353.356 967.062 364.856H855.878C834.659 291.334 773.123 427.846 625.423 340.853C611.99 332.941 598.468 322.76 586.967 308.061C577.091 329.979 559.9 357.951 555.898 364.856H259.728C220.085 313.956 175.424 201.146 97.6953 200.265L96.7793 200.26C96.7793 221.883 100.823 242.271 106.847 260.879C124.433 314.945 158.897 353.337 158.897 364.856H0C1.5722e-05 293.276 3.95605 64.4616 3.95605 10.5802C75.4594 7.01564 177.416 -16.9038 241.178 26.5323C273.946 48.5616 282.303 79.1896 275.864 108.463C274.008 160.373 234.077 188.302 185.455 196.652C197.005 210.58 208.672 227.08 220.951 243.833C233.706 260.679 248.126 279.036 261.99 294.478C273.909 306.931 286.64 317.834 300.487 325.786C323.024 186.448 290.337 83.088 290.337 10.5802L550.615 12.5528L554.565 104.039C523.774 104.039 467.72 37.0167 390.267 37.0167C382.233 37.017 379.88 61.3658 379.722 89.6837C379.91 119.029 382.614 151.365 382.614 160.013C439.595 160.013 452.214 108.154 483.444 108.153V245.355C452.066 245.354 440.084 192.143 382.614 192.143C382.614 208.448 378.293 235.948 377.585 262.99C378.316 287.224 383.227 309.372 398.369 320.55C428.632 340.256 466.174 341.882 498.348 330.046C508.578 325.224 518.499 319.735 527.841 314.206C544.776 301.685 558.044 284.564 564.619 263.942C559.286 246.33 556.073 225.091 555.905 199.238C550.54 123.043 584.735 42.9931 658.079 12.5528ZM977.636 202.401L1058.52 203.454L1019.73 90.7169L977.636 202.401ZM199.859 54.6036C189.59 45.1291 96.7803 23.8261 96.7793 46.4864L96.2344 163.62C128.643 163.62 167.427 167.963 194.813 147.386C223.563 125.638 226.924 78.9366 199.859 54.6036Z" fill="#EAE9E8"/>
</svg>
