<svg width="380" height="449" viewBox="0 0 380 449" fill="none" xmlns="http://www.w3.org/2000/svg">
<path d="M174.121 9.52902C167.191 14.7267 156.363 20.574 150.082 22.5231C137.305 26.8545 129.075 35.0841 125.61 47.212C122.361 58.9067 122.794 60.6392 128.858 60.6392C141.853 60.6392 157.879 45.2629 162.427 28.1539C164.159 22.09 167.624 17.5421 176.503 10.8284C187.115 2.59882 189.931 0 187.765 0C187.332 0 181.268 4.33137 174.121 9.52902Z" fill="#EAE9E8"/>
<path d="M122.578 18.8415C117.38 27.0711 110.883 35.5173 108.284 37.8995C97.4559 47.8617 93.7742 68.0026 100.921 79.9138C104.17 85.5446 104.17 86.4109 100.488 92.2583L96.3731 98.3222L95.0736 87.4938C94.4239 81.6464 91.6085 72.7671 89.2263 68.0026L84.6783 59.1233L89.0097 42.2309C94.6405 20.3575 92.908 18.8415 86.844 40.4984C84.2452 49.8108 79.6973 62.8049 76.6653 69.5186C68.8688 87.9269 69.9517 104.603 79.9138 114.565C84.2452 118.896 84.2452 119.113 80.347 128.209L76.4487 137.521L74.9328 127.126C73.8499 120.412 70.818 113.482 65.6203 106.768L57.8238 96.5896L59.3398 73.8499C59.9895 61.5055 60.2061 51.7599 59.773 52.1931C59.3398 52.6262 57.8238 63.2381 56.3079 75.799C55.0084 88.36 52.4096 103.736 50.4605 110.233C47.6451 119.762 47.4285 123.877 49.5942 132.54C52.6262 145.534 59.3398 155.929 65.1872 155.929C69.9517 155.929 69.9517 155.929 66.4866 170.006L63.4546 180.835L61.9386 172.389C60.8558 166.541 57.1741 160.911 49.8108 153.547C38.1161 141.852 36.8167 138.387 34.651 107.201C33.5681 91.1754 33.135 97.6725 33.5681 132.107C33.7847 170.44 34.651 179.969 37.4664 185.599C41.7978 193.612 51.1102 201.409 56.5244 201.409C60.2061 201.409 60.6392 203.141 60.6392 214.836V228.263L54.1422 218.085C50.2439 212.021 43.3137 205.091 37.0332 201.192C26.8545 194.912 26.4214 194.046 20.574 174.771C12.9941 148.999 13.4273 149.866 13.2107 153.98C12.9941 155.929 15.3764 166.974 18.4083 178.453C21.4403 189.931 23.8226 203.791 23.8226 208.989C23.8226 225.881 32.4853 241.257 46.3457 248.404C49.5942 250.137 54.3587 251.22 56.5244 250.57C59.773 249.704 60.8558 251.003 61.7221 257.5C62.3718 261.831 63.4546 267.029 63.8878 269.195C64.3209 271.577 60.8558 269.628 53.9256 263.347C48.0782 257.933 38.9824 252.302 34.0013 250.786C25.3385 247.971 24.2557 246.455 12.561 224.149C5.63079 210.938 0.216569 200.976 0 201.842C0 204.008 15.1598 238.875 18.6249 244.073C20.3575 246.672 22.7397 253.818 24.0391 259.666C27.2877 275.692 36.6001 288.686 48.5114 294.533C55.0084 297.565 60.8558 298.865 64.5375 298.215C69.9517 297.132 70.6014 297.782 74.0665 307.961L77.7482 318.789L72.7671 314.241C67.5694 309.477 46.3457 301.03 39.4155 301.03C36.8167 301.03 30.3196 294.75 22.5231 284.571C15.3764 275.475 8.01304 265.946 5.84735 263.347C-1.08284 255.334 13.2107 277.858 23.1728 290.635C28.3705 297.349 34.4344 307.311 36.6001 312.509C45.4794 333.083 61.7221 345.21 79.2641 344.128C88.7932 343.478 89.2263 343.694 97.889 355.173C139.037 410.614 197.727 441.583 268.545 445.482C296.266 446.781 323.554 443.966 348.676 437.036C372.282 430.538 376.396 428.156 375.097 421.226C374.447 417.111 373.148 415.812 370.549 416.678C368.6 417.328 359.721 420.36 350.841 423.608C338.064 428.156 329.401 429.672 310.343 430.538C280.023 431.838 260.965 427.723 233.678 414.512C186.032 391.34 157.662 344.777 164.592 301.464C165.675 294.75 166.325 288.903 165.892 288.469C165.242 288.036 161.993 292.801 158.312 299.081C139.903 331.567 144.884 371.848 171.089 401.518L180.618 411.914L171.739 407.582C152.248 397.62 129.075 377.263 112.399 355.606L102.004 341.745L109.367 335.465C120.845 325.503 124.31 313.375 122.578 290.635C121.928 280.24 122.361 263.564 123.444 253.602C124.744 243.64 125.393 235.194 124.96 234.76C124.527 234.327 122.578 243.207 120.629 254.468C117.38 273.959 116.731 275.692 108.501 283.705C98.5387 293.451 93.1245 304.496 92.908 315.974V323.77L87.7103 312.075C82.2961 300.597 82.2961 296.699 87.4937 296.699C91.6085 296.699 103.303 283.488 106.985 274.609C108.934 270.061 110.45 261.615 110.45 255.334C110.45 249.271 113.482 234.111 117.164 221.55C120.629 208.989 123.444 198.377 123.011 198.16C122.578 197.727 119.113 206.823 114.998 218.518C108.717 237.143 106.985 239.958 100.704 243.423C89.876 249.271 84.2452 256.201 80.1304 268.545C76.0156 280.456 74.9328 279.59 72.5505 263.781C71.0345 254.468 71.2511 253.818 76.8819 252.519C91.6085 248.837 102.004 234.977 107.418 212.237C108.934 205.091 114.781 190.58 120.196 179.752C125.61 169.14 129.508 160.261 129.075 160.261C128.425 160.261 123.011 169.357 116.947 180.402C106.768 198.81 105.036 200.759 94.6405 205.74C87.7103 208.989 80.7801 214.62 76.4487 220.25C68.8688 230.646 66.27 228.697 68.4357 214.186C69.7351 207.04 70.6014 205.74 75.1493 205.74C89.2263 205.74 103.087 193.396 109.367 175.421C111.316 170.223 116.731 160.477 121.712 153.98C144.451 123.444 144.668 121.928 122.794 147.267C112.399 159.611 109.151 161.993 99.6216 164.376C92.2582 166.325 85.5446 170.006 79.9138 175.421C70.8179 184.083 69.9517 183.001 73.4168 168.057C74.4996 162.426 75.5825 161.993 84.6783 161.56C96.8062 161.127 109.151 153.331 116.731 141.419C119.546 136.871 129.725 125.393 139.47 116.081C157.879 98.1056 157.229 98.3222 134.922 116.514C125.826 123.877 120.196 127.126 117.38 126.26C110.883 124.744 96.1565 129.508 88.7932 135.572C81.4298 142.069 81.2133 141.636 85.5446 130.591C88.7932 122.361 88.7932 122.361 101.354 122.361C115.431 122.361 126.043 116.947 133.406 105.686C135.572 102.437 145.101 94.2074 154.413 87.4938C163.509 80.9967 171.089 75.1493 171.089 74.4996C171.089 73.6334 157.012 81.863 146.4 89.4429C141.852 92.6914 137.305 93.7742 129.725 93.3411C123.011 93.1245 115.648 94.4239 109.367 97.2393C98.5387 102.004 98.1056 101.787 103.303 93.5577C105.252 90.3091 106.985 87.4938 107.201 87.2772C107.418 86.844 110.45 87.9269 114.132 89.2263C123.877 92.908 138.387 86.844 149.432 74.2831C154.197 68.8688 163.076 60.6392 169.14 56.0913C182.134 46.3457 185.599 42.8806 176.72 48.5114C161.127 58.257 156.146 60.2061 143.152 61.2889C133.623 62.1552 127.342 63.8878 122.794 67.3529C116.731 71.6842 116.297 71.6842 117.813 68.0026C121.062 59.773 121.712 50.4605 119.329 42.0143C117.164 34.2179 117.597 32.7019 125.393 19.0581C130.158 10.8284 133.406 4.33139 132.973 4.33139C132.54 4.33139 127.776 10.8284 122.578 18.8415ZM163.942 363.186C163.076 363.835 162.426 363.186 162.426 361.67C162.426 360.154 163.076 359.504 163.942 360.154C164.592 361.02 164.592 362.319 163.942 363.186ZM170.873 374.014C177.153 386.792 191.88 402.168 208.556 413.863C225.665 425.774 225.881 427.073 209.638 418.844C190.58 409.098 170.656 387.441 165.675 370.766C163.509 363.402 166.108 365.135 170.873 374.014Z" fill="#EAE9E8"/>
<path d="M93.1245 19.4912C93.1245 21.0072 93.7742 21.6569 94.6405 21.0072C95.2902 20.1409 95.2902 18.8415 94.6405 17.9752C93.7742 17.3255 93.1245 17.9752 93.1245 19.4912Z" fill="#EAE9E8"/>
<path d="M189.281 15.7011C171.739 17.8668 169.551 24.4186 166.758 31.4023C165.675 34.1096 163.509 39.1988 159.394 45.2627C155.28 51.3266 152.681 56.3077 153.547 56.3077C154.413 56.3077 162.21 51.9763 171.089 46.5621C179.969 41.3645 188.198 36.8165 189.281 36.8165C190.147 36.8165 190.58 38.9822 190.147 41.7976C189.281 46.7787 187.332 46.5621 206.823 43.3137C268.004 34.6509 284.788 49.2693 305.903 62.8049C329.15 77.7064 346.51 110.45 346.51 141.311C360.587 141.311 366.001 141.311 371.957 141.311C371.957 138.063 371.957 129.725 371.957 110.45C371.957 98.9718 371.415 74.1747 371.415 60.6392H361.128C361.128 60.6392 351.899 52.8934 345.427 48.7279C338.19 44.0698 333.715 42.1231 325.936 38.4409C277.036 15.2957 225.773 9.20415 189.281 15.7011Z" fill="#EAE9E8"/>
<path d="M60.8559 46.7788C60.8559 49.1611 61.5056 49.8108 62.1553 48.0782C62.805 46.5622 62.5885 44.6131 61.9388 43.9634C61.2891 43.0971 60.6394 44.3966 60.8559 46.7788Z" fill="#EAE9E8"/>
<path d="M62.8049 95.0736C62.8049 96.3731 63.8878 97.889 64.9706 98.5387C66.27 99.1885 67.1363 98.3222 67.1363 96.5896C67.1363 94.6405 66.27 93.1245 64.9706 93.1245C63.8878 93.1245 62.8049 93.9908 62.8049 95.0736Z" fill="#EAE9E8"/>
<path d="M41.148 132.973C41.148 137.521 43.5303 142.935 45.4794 142.935C47.6451 142.935 45.4794 132.323 43.0972 130.807C42.0143 130.158 41.148 131.024 41.148 132.973Z" fill="#EAE9E8"/>
<path d="M11.2615 145.101C11.2615 148.133 11.6946 149.216 12.3443 147.7C12.7774 146.4 12.7774 143.802 12.3443 142.286C11.6946 140.986 11.2615 142.069 11.2615 145.101Z" fill="#EAE9E8"/>
<path d="M25.5551 167.408C23.8226 176.07 28.8036 190.797 34.4344 194.695L39.1989 197.727L34.651 189.064C32.2687 184.3 29.4533 176.07 28.5871 170.873C27.0711 162.21 26.6379 161.777 25.5551 167.408Z" fill="#EAE9E8"/>
<path d="M17.5422 211.804C17.3256 226.964 22.5233 240.608 30.5363 244.939C34.8677 247.105 34.8677 246.888 29.8866 240.175C22.7398 230.646 21.4404 226.747 19.4913 211.154L17.9753 198.16L17.5422 211.804Z" fill="#EAE9E8"/>
<path d="M51.3268 207.04C52.6262 210.288 56.3078 211.154 56.3078 208.122C56.3078 207.04 54.7919 205.74 53.2759 205.091C51.1102 204.224 50.4605 204.874 51.3268 207.04Z" fill="#EAE9E8"/>
<path d="M299.468 286.412C317.335 288.578 320.583 292.368 323.291 293.45C341.699 305.362 339.533 328.643 339.533 333.516C339.533 348.134 331.845 371.957 325.998 384.951C321.125 395.779 304.449 408.99 282.792 415.27C273.696 417.869 267.416 420.684 268.715 421.551C270.015 422.417 278.677 424.15 287.99 425.449C308.781 428.481 328.464 424.654 353.007 417.436C362.211 414.729 372.498 409.315 375.747 412.022C378.995 414.729 380.943 456.96 379.537 404.442C378.13 351.924 377.371 332.974 377.371 332.974L374.184 257.717V249.595H340.616C318.526 249.595 297.844 249.054 289.722 249.054V285.87L299.468 286.412Z" fill="#EAE9E8"/>
<path d="M16.0262 259.666C17.109 269.411 18.8415 273.526 26.638 283.488C31.8357 289.985 37.4665 295.833 39.199 296.483C40.715 296.916 38.1162 292.801 33.3516 287.387C27.7209 281.106 23.3895 273.31 21.6569 267.029C17.3256 249.487 14.9433 246.455 16.0262 259.666Z" fill="#EAE9E8"/>
<path d="M18.6249 296.699C24.4723 323.337 41.5812 359.937 58.0404 380.078C77.315 404.117 110.667 426.64 142.502 437.469C166.325 445.265 227.397 451.979 227.397 446.565C227.397 445.698 219.384 442.883 209.855 440.068C166.325 428.156 118.68 394.805 96.1565 360.587C88.36 348.892 87.9269 348.676 77.5316 348.676C58.4735 348.676 43.5303 337.631 33.7847 316.19C30.7528 309.693 25.7717 301.247 22.9563 297.782C17.7586 291.501 17.5421 291.501 18.6249 296.699Z" fill="#EAE9E8"/>
</svg>
